<?xml version="1.0" standalone="no"?>
<svg xmlns="http://www.w3.org/2000/svg" version="1.1" width="348" height="348">
	<!-- Created with https://api.qrserver.com (QR Code API, see goQR.me/api for information) -->
	<title>QR Code</title>
	<desc>https://app.olaink.com/prototype/onboard</desc>
	<rect style="fill:rgb(255, 255, 255);fill-opacity:1" x="0" y="0" width="348" height="348" />
	<g id="elements">
		<path style="fill:rgb(0, 0, 0)" d="M 0,0 l 12,0 0,12 -12,0 z M 12,0 l 12,0 0,12 -12,0 z M 24,0 l 12,0 0,12 -12,0 z M 36,0 l 12,0 0,12 -12,0 z M 48,0 l 12,0 0,12 -12,0 z M 60,0 l 12,0 0,12 -12,0 z M 72,0 l 12,0 0,12 -12,0 z M 120,0 l 12,0 0,12 -12,0 z M 144,0 l 12,0 0,12 -12,0 z M 156,0 l 12,0 0,12 -12,0 z M 192,0 l 12,0 0,12 -12,0 z M 204,0 l 12,0 0,12 -12,0 z M 216,0 l 12,0 0,12 -12,0 z M 228,0 l 12,0 0,12 -12,0 z M 264,0 l 12,0 0,12 -12,0 z M 276,0 l 12,0 0,12 -12,0 z M 288,0 l 12,0 0,12 -12,0 z M 300,0 l 12,0 0,12 -12,0 z M 312,0 l 12,0 0,12 -12,0 z M 324,0 l 12,0 0,12 -12,0 z M 336,0 l 12,0 0,12 -12,0 z M 0,12 l 12,0 0,12 -12,0 z M 72,12 l 12,0 0,12 -12,0 z M 96,12 l 12,0 0,12 -12,0 z M 120,12 l 12,0 0,12 -12,0 z M 156,12 l 12,0 0,12 -12,0 z M 168,12 l 12,0 0,12 -12,0 z M 180,12 l 12,0 0,12 -12,0 z M 204,12 l 12,0 0,12 -12,0 z M 240,12 l 12,0 0,12 -12,0 z M 264,12 l 12,0 0,12 -12,0 z M 336,12 l 12,0 0,12 -12,0 z M 0,24 l 12,0 0,12 -12,0 z M 24,24 l 12,0 0,12 -12,0 z M 36,24 l 12,0 0,12 -12,0 z M 48,24 l 12,0 0,12 -12,0 z M 72,24 l 12,0 0,12 -12,0 z M 144,24 l 12,0 0,12 -12,0 z M 168,24 l 12,0 0,12 -12,0 z M 240,24 l 12,0 0,12 -12,0 z M 264,24 l 12,0 0,12 -12,0 z M 288,24 l 12,0 0,12 -12,0 z M 300,24 l 12,0 0,12 -12,0 z M 312,24 l 12,0 0,12 -12,0 z M 336,24 l 12,0 0,12 -12,0 z M 0,36 l 12,0 0,12 -12,0 z M 24,36 l 12,0 0,12 -12,0 z M 36,36 l 12,0 0,12 -12,0 z M 48,36 l 12,0 0,12 -12,0 z M 72,36 l 12,0 0,12 -12,0 z M 96,36 l 12,0 0,12 -12,0 z M 108,36 l 12,0 0,12 -12,0 z M 120,36 l 12,0 0,12 -12,0 z M 144,36 l 12,0 0,12 -12,0 z M 156,36 l 12,0 0,12 -12,0 z M 168,36 l 12,0 0,12 -12,0 z M 180,36 l 12,0 0,12 -12,0 z M 204,36 l 12,0 0,12 -12,0 z M 228,36 l 12,0 0,12 -12,0 z M 264,36 l 12,0 0,12 -12,0 z M 288,36 l 12,0 0,12 -12,0 z M 300,36 l 12,0 0,12 -12,0 z M 312,36 l 12,0 0,12 -12,0 z M 336,36 l 12,0 0,12 -12,0 z M 0,48 l 12,0 0,12 -12,0 z M 24,48 l 12,0 0,12 -12,0 z M 36,48 l 12,0 0,12 -12,0 z M 48,48 l 12,0 0,12 -12,0 z M 72,48 l 12,0 0,12 -12,0 z M 108,48 l 12,0 0,12 -12,0 z M 192,48 l 12,0 0,12 -12,0 z M 228,48 l 12,0 0,12 -12,0 z M 240,48 l 12,0 0,12 -12,0 z M 264,48 l 12,0 0,12 -12,0 z M 288,48 l 12,0 0,12 -12,0 z M 300,48 l 12,0 0,12 -12,0 z M 312,48 l 12,0 0,12 -12,0 z M 336,48 l 12,0 0,12 -12,0 z M 0,60 l 12,0 0,12 -12,0 z M 72,60 l 12,0 0,12 -12,0 z M 96,60 l 12,0 0,12 -12,0 z M 108,60 l 12,0 0,12 -12,0 z M 132,60 l 12,0 0,12 -12,0 z M 144,60 l 12,0 0,12 -12,0 z M 180,60 l 12,0 0,12 -12,0 z M 216,60 l 12,0 0,12 -12,0 z M 240,60 l 12,0 0,12 -12,0 z M 264,60 l 12,0 0,12 -12,0 z M 336,60 l 12,0 0,12 -12,0 z M 0,72 l 12,0 0,12 -12,0 z M 12,72 l 12,0 0,12 -12,0 z M 24,72 l 12,0 0,12 -12,0 z M 36,72 l 12,0 0,12 -12,0 z M 48,72 l 12,0 0,12 -12,0 z M 60,72 l 12,0 0,12 -12,0 z M 72,72 l 12,0 0,12 -12,0 z M 96,72 l 12,0 0,12 -12,0 z M 120,72 l 12,0 0,12 -12,0 z M 144,72 l 12,0 0,12 -12,0 z M 168,72 l 12,0 0,12 -12,0 z M 192,72 l 12,0 0,12 -12,0 z M 216,72 l 12,0 0,12 -12,0 z M 240,72 l 12,0 0,12 -12,0 z M 264,72 l 12,0 0,12 -12,0 z M 276,72 l 12,0 0,12 -12,0 z M 288,72 l 12,0 0,12 -12,0 z M 300,72 l 12,0 0,12 -12,0 z M 312,72 l 12,0 0,12 -12,0 z M 324,72 l 12,0 0,12 -12,0 z M 336,72 l 12,0 0,12 -12,0 z M 108,84 l 12,0 0,12 -12,0 z M 120,84 l 12,0 0,12 -12,0 z M 132,84 l 12,0 0,12 -12,0 z M 168,84 l 12,0 0,12 -12,0 z M 192,84 l 12,0 0,12 -12,0 z M 216,84 l 12,0 0,12 -12,0 z M 228,84 l 12,0 0,12 -12,0 z M 240,84 l 12,0 0,12 -12,0 z M 0,96 l 12,0 0,12 -12,0 z M 12,96 l 12,0 0,12 -12,0 z M 24,96 l 12,0 0,12 -12,0 z M 36,96 l 12,0 0,12 -12,0 z M 48,96 l 12,0 0,12 -12,0 z M 72,96 l 12,0 0,12 -12,0 z M 84,96 l 12,0 0,12 -12,0 z M 96,96 l 12,0 0,12 -12,0 z M 108,96 l 12,0 0,12 -12,0 z M 132,96 l 12,0 0,12 -12,0 z M 156,96 l 12,0 0,12 -12,0 z M 168,96 l 12,0 0,12 -12,0 z M 204,96 l 12,0 0,12 -12,0 z M 228,96 l 12,0 0,12 -12,0 z M 252,96 l 12,0 0,12 -12,0 z M 276,96 l 12,0 0,12 -12,0 z M 300,96 l 12,0 0,12 -12,0 z M 324,96 l 12,0 0,12 -12,0 z M 12,108 l 12,0 0,12 -12,0 z M 24,108 l 12,0 0,12 -12,0 z M 48,108 l 12,0 0,12 -12,0 z M 96,108 l 12,0 0,12 -12,0 z M 120,108 l 12,0 0,12 -12,0 z M 144,108 l 12,0 0,12 -12,0 z M 168,108 l 12,0 0,12 -12,0 z M 192,108 l 12,0 0,12 -12,0 z M 228,108 l 12,0 0,12 -12,0 z M 240,108 l 12,0 0,12 -12,0 z M 252,108 l 12,0 0,12 -12,0 z M 264,108 l 12,0 0,12 -12,0 z M 276,108 l 12,0 0,12 -12,0 z M 288,108 l 12,0 0,12 -12,0 z M 336,108 l 12,0 0,12 -12,0 z M 0,120 l 12,0 0,12 -12,0 z M 12,120 l 12,0 0,12 -12,0 z M 24,120 l 12,0 0,12 -12,0 z M 36,120 l 12,0 0,12 -12,0 z M 48,120 l 12,0 0,12 -12,0 z M 60,120 l 12,0 0,12 -12,0 z M 72,120 l 12,0 0,12 -12,0 z M 96,120 l 12,0 0,12 -12,0 z M 120,120 l 12,0 0,12 -12,0 z M 156,120 l 12,0 0,12 -12,0 z M 180,120 l 12,0 0,12 -12,0 z M 192,120 l 12,0 0,12 -12,0 z M 204,120 l 12,0 0,12 -12,0 z M 216,120 l 12,0 0,12 -12,0 z M 240,120 l 12,0 0,12 -12,0 z M 264,120 l 12,0 0,12 -12,0 z M 0,132 l 12,0 0,12 -12,0 z M 12,132 l 12,0 0,12 -12,0 z M 96,132 l 12,0 0,12 -12,0 z M 144,132 l 12,0 0,12 -12,0 z M 192,132 l 12,0 0,12 -12,0 z M 216,132 l 12,0 0,12 -12,0 z M 228,132 l 12,0 0,12 -12,0 z M 264,132 l 12,0 0,12 -12,0 z M 276,132 l 12,0 0,12 -12,0 z M 300,132 l 12,0 0,12 -12,0 z M 324,132 l 12,0 0,12 -12,0 z M 60,144 l 12,0 0,12 -12,0 z M 72,144 l 12,0 0,12 -12,0 z M 96,144 l 12,0 0,12 -12,0 z M 108,144 l 12,0 0,12 -12,0 z M 120,144 l 12,0 0,12 -12,0 z M 144,144 l 12,0 0,12 -12,0 z M 156,144 l 12,0 0,12 -12,0 z M 168,144 l 12,0 0,12 -12,0 z M 204,144 l 12,0 0,12 -12,0 z M 300,144 l 12,0 0,12 -12,0 z M 312,144 l 12,0 0,12 -12,0 z M 0,156 l 12,0 0,12 -12,0 z M 24,156 l 12,0 0,12 -12,0 z M 60,156 l 12,0 0,12 -12,0 z M 84,156 l 12,0 0,12 -12,0 z M 108,156 l 12,0 0,12 -12,0 z M 192,156 l 12,0 0,12 -12,0 z M 204,156 l 12,0 0,12 -12,0 z M 216,156 l 12,0 0,12 -12,0 z M 228,156 l 12,0 0,12 -12,0 z M 240,156 l 12,0 0,12 -12,0 z M 252,156 l 12,0 0,12 -12,0 z M 264,156 l 12,0 0,12 -12,0 z M 288,156 l 12,0 0,12 -12,0 z M 336,156 l 12,0 0,12 -12,0 z M 0,168 l 12,0 0,12 -12,0 z M 24,168 l 12,0 0,12 -12,0 z M 72,168 l 12,0 0,12 -12,0 z M 84,168 l 12,0 0,12 -12,0 z M 108,168 l 12,0 0,12 -12,0 z M 120,168 l 12,0 0,12 -12,0 z M 132,168 l 12,0 0,12 -12,0 z M 144,168 l 12,0 0,12 -12,0 z M 168,168 l 12,0 0,12 -12,0 z M 180,168 l 12,0 0,12 -12,0 z M 192,168 l 12,0 0,12 -12,0 z M 204,168 l 12,0 0,12 -12,0 z M 264,168 l 12,0 0,12 -12,0 z M 288,168 l 12,0 0,12 -12,0 z M 300,168 l 12,0 0,12 -12,0 z M 312,168 l 12,0 0,12 -12,0 z M 36,180 l 12,0 0,12 -12,0 z M 48,180 l 12,0 0,12 -12,0 z M 60,180 l 12,0 0,12 -12,0 z M 84,180 l 12,0 0,12 -12,0 z M 96,180 l 12,0 0,12 -12,0 z M 132,180 l 12,0 0,12 -12,0 z M 192,180 l 12,0 0,12 -12,0 z M 228,180 l 12,0 0,12 -12,0 z M 240,180 l 12,0 0,12 -12,0 z M 252,180 l 12,0 0,12 -12,0 z M 288,180 l 12,0 0,12 -12,0 z M 324,180 l 12,0 0,12 -12,0 z M 0,192 l 12,0 0,12 -12,0 z M 36,192 l 12,0 0,12 -12,0 z M 48,192 l 12,0 0,12 -12,0 z M 60,192 l 12,0 0,12 -12,0 z M 72,192 l 12,0 0,12 -12,0 z M 84,192 l 12,0 0,12 -12,0 z M 96,192 l 12,0 0,12 -12,0 z M 108,192 l 12,0 0,12 -12,0 z M 120,192 l 12,0 0,12 -12,0 z M 132,192 l 12,0 0,12 -12,0 z M 204,192 l 12,0 0,12 -12,0 z M 228,192 l 12,0 0,12 -12,0 z M 276,192 l 12,0 0,12 -12,0 z M 300,192 l 12,0 0,12 -12,0 z M 312,192 l 12,0 0,12 -12,0 z M 0,204 l 12,0 0,12 -12,0 z M 12,204 l 12,0 0,12 -12,0 z M 36,204 l 12,0 0,12 -12,0 z M 60,204 l 12,0 0,12 -12,0 z M 84,204 l 12,0 0,12 -12,0 z M 96,204 l 12,0 0,12 -12,0 z M 108,204 l 12,0 0,12 -12,0 z M 144,204 l 12,0 0,12 -12,0 z M 156,204 l 12,0 0,12 -12,0 z M 228,204 l 12,0 0,12 -12,0 z M 252,204 l 12,0 0,12 -12,0 z M 264,204 l 12,0 0,12 -12,0 z M 276,204 l 12,0 0,12 -12,0 z M 288,204 l 12,0 0,12 -12,0 z M 312,204 l 12,0 0,12 -12,0 z M 336,204 l 12,0 0,12 -12,0 z M 0,216 l 12,0 0,12 -12,0 z M 48,216 l 12,0 0,12 -12,0 z M 60,216 l 12,0 0,12 -12,0 z M 72,216 l 12,0 0,12 -12,0 z M 96,216 l 12,0 0,12 -12,0 z M 108,216 l 12,0 0,12 -12,0 z M 120,216 l 12,0 0,12 -12,0 z M 156,216 l 12,0 0,12 -12,0 z M 168,216 l 12,0 0,12 -12,0 z M 180,216 l 12,0 0,12 -12,0 z M 192,216 l 12,0 0,12 -12,0 z M 240,216 l 12,0 0,12 -12,0 z M 252,216 l 12,0 0,12 -12,0 z M 288,216 l 12,0 0,12 -12,0 z M 312,216 l 12,0 0,12 -12,0 z M 0,228 l 12,0 0,12 -12,0 z M 36,228 l 12,0 0,12 -12,0 z M 144,228 l 12,0 0,12 -12,0 z M 156,228 l 12,0 0,12 -12,0 z M 180,228 l 12,0 0,12 -12,0 z M 192,228 l 12,0 0,12 -12,0 z M 216,228 l 12,0 0,12 -12,0 z M 228,228 l 12,0 0,12 -12,0 z M 288,228 l 12,0 0,12 -12,0 z M 324,228 l 12,0 0,12 -12,0 z M 0,240 l 12,0 0,12 -12,0 z M 24,240 l 12,0 0,12 -12,0 z M 36,240 l 12,0 0,12 -12,0 z M 72,240 l 12,0 0,12 -12,0 z M 84,240 l 12,0 0,12 -12,0 z M 108,240 l 12,0 0,12 -12,0 z M 120,240 l 12,0 0,12 -12,0 z M 144,240 l 12,0 0,12 -12,0 z M 168,240 l 12,0 0,12 -12,0 z M 180,240 l 12,0 0,12 -12,0 z M 204,240 l 12,0 0,12 -12,0 z M 228,240 l 12,0 0,12 -12,0 z M 240,240 l 12,0 0,12 -12,0 z M 252,240 l 12,0 0,12 -12,0 z M 264,240 l 12,0 0,12 -12,0 z M 276,240 l 12,0 0,12 -12,0 z M 288,240 l 12,0 0,12 -12,0 z M 312,240 l 12,0 0,12 -12,0 z M 324,240 l 12,0 0,12 -12,0 z M 336,240 l 12,0 0,12 -12,0 z M 96,252 l 12,0 0,12 -12,0 z M 192,252 l 12,0 0,12 -12,0 z M 204,252 l 12,0 0,12 -12,0 z M 216,252 l 12,0 0,12 -12,0 z M 240,252 l 12,0 0,12 -12,0 z M 288,252 l 12,0 0,12 -12,0 z M 300,252 l 12,0 0,12 -12,0 z M 312,252 l 12,0 0,12 -12,0 z M 324,252 l 12,0 0,12 -12,0 z M 336,252 l 12,0 0,12 -12,0 z M 0,264 l 12,0 0,12 -12,0 z M 12,264 l 12,0 0,12 -12,0 z M 24,264 l 12,0 0,12 -12,0 z M 36,264 l 12,0 0,12 -12,0 z M 48,264 l 12,0 0,12 -12,0 z M 60,264 l 12,0 0,12 -12,0 z M 72,264 l 12,0 0,12 -12,0 z M 96,264 l 12,0 0,12 -12,0 z M 108,264 l 12,0 0,12 -12,0 z M 132,264 l 12,0 0,12 -12,0 z M 144,264 l 12,0 0,12 -12,0 z M 180,264 l 12,0 0,12 -12,0 z M 204,264 l 12,0 0,12 -12,0 z M 228,264 l 12,0 0,12 -12,0 z M 240,264 l 12,0 0,12 -12,0 z M 264,264 l 12,0 0,12 -12,0 z M 288,264 l 12,0 0,12 -12,0 z M 300,264 l 12,0 0,12 -12,0 z M 312,264 l 12,0 0,12 -12,0 z M 0,276 l 12,0 0,12 -12,0 z M 72,276 l 12,0 0,12 -12,0 z M 108,276 l 12,0 0,12 -12,0 z M 132,276 l 12,0 0,12 -12,0 z M 168,276 l 12,0 0,12 -12,0 z M 180,276 l 12,0 0,12 -12,0 z M 228,276 l 12,0 0,12 -12,0 z M 240,276 l 12,0 0,12 -12,0 z M 288,276 l 12,0 0,12 -12,0 z M 324,276 l 12,0 0,12 -12,0 z M 0,288 l 12,0 0,12 -12,0 z M 24,288 l 12,0 0,12 -12,0 z M 36,288 l 12,0 0,12 -12,0 z M 48,288 l 12,0 0,12 -12,0 z M 72,288 l 12,0 0,12 -12,0 z M 96,288 l 12,0 0,12 -12,0 z M 120,288 l 12,0 0,12 -12,0 z M 132,288 l 12,0 0,12 -12,0 z M 180,288 l 12,0 0,12 -12,0 z M 192,288 l 12,0 0,12 -12,0 z M 204,288 l 12,0 0,12 -12,0 z M 240,288 l 12,0 0,12 -12,0 z M 252,288 l 12,0 0,12 -12,0 z M 264,288 l 12,0 0,12 -12,0 z M 276,288 l 12,0 0,12 -12,0 z M 288,288 l 12,0 0,12 -12,0 z M 312,288 l 12,0 0,12 -12,0 z M 324,288 l 12,0 0,12 -12,0 z M 336,288 l 12,0 0,12 -12,0 z M 0,300 l 12,0 0,12 -12,0 z M 24,300 l 12,0 0,12 -12,0 z M 36,300 l 12,0 0,12 -12,0 z M 48,300 l 12,0 0,12 -12,0 z M 72,300 l 12,0 0,12 -12,0 z M 96,300 l 12,0 0,12 -12,0 z M 120,300 l 12,0 0,12 -12,0 z M 144,300 l 12,0 0,12 -12,0 z M 156,300 l 12,0 0,12 -12,0 z M 168,300 l 12,0 0,12 -12,0 z M 192,300 l 12,0 0,12 -12,0 z M 240,300 l 12,0 0,12 -12,0 z M 276,300 l 12,0 0,12 -12,0 z M 300,300 l 12,0 0,12 -12,0 z M 312,300 l 12,0 0,12 -12,0 z M 324,300 l 12,0 0,12 -12,0 z M 336,300 l 12,0 0,12 -12,0 z M 0,312 l 12,0 0,12 -12,0 z M 24,312 l 12,0 0,12 -12,0 z M 36,312 l 12,0 0,12 -12,0 z M 48,312 l 12,0 0,12 -12,0 z M 72,312 l 12,0 0,12 -12,0 z M 96,312 l 12,0 0,12 -12,0 z M 156,312 l 12,0 0,12 -12,0 z M 168,312 l 12,0 0,12 -12,0 z M 180,312 l 12,0 0,12 -12,0 z M 192,312 l 12,0 0,12 -12,0 z M 228,312 l 12,0 0,12 -12,0 z M 240,312 l 12,0 0,12 -12,0 z M 252,312 l 12,0 0,12 -12,0 z M 264,312 l 12,0 0,12 -12,0 z M 276,312 l 12,0 0,12 -12,0 z M 288,312 l 12,0 0,12 -12,0 z M 300,312 l 12,0 0,12 -12,0 z M 312,312 l 12,0 0,12 -12,0 z M 324,312 l 12,0 0,12 -12,0 z M 0,324 l 12,0 0,12 -12,0 z M 72,324 l 12,0 0,12 -12,0 z M 96,324 l 12,0 0,12 -12,0 z M 108,324 l 12,0 0,12 -12,0 z M 144,324 l 12,0 0,12 -12,0 z M 156,324 l 12,0 0,12 -12,0 z M 180,324 l 12,0 0,12 -12,0 z M 216,324 l 12,0 0,12 -12,0 z M 240,324 l 12,0 0,12 -12,0 z M 252,324 l 12,0 0,12 -12,0 z M 264,324 l 12,0 0,12 -12,0 z M 276,324 l 12,0 0,12 -12,0 z M 288,324 l 12,0 0,12 -12,0 z M 300,324 l 12,0 0,12 -12,0 z M 324,324 l 12,0 0,12 -12,0 z M 0,336 l 12,0 0,12 -12,0 z M 12,336 l 12,0 0,12 -12,0 z M 24,336 l 12,0 0,12 -12,0 z M 36,336 l 12,0 0,12 -12,0 z M 48,336 l 12,0 0,12 -12,0 z M 60,336 l 12,0 0,12 -12,0 z M 72,336 l 12,0 0,12 -12,0 z M 96,336 l 12,0 0,12 -12,0 z M 108,336 l 12,0 0,12 -12,0 z M 120,336 l 12,0 0,12 -12,0 z M 144,336 l 12,0 0,12 -12,0 z M 168,336 l 12,0 0,12 -12,0 z M 192,336 l 12,0 0,12 -12,0 z M 204,336 l 12,0 0,12 -12,0 z M 228,336 l 12,0 0,12 -12,0 z M 288,336 l 12,0 0,12 -12,0 z M 312,336 l 12,0 0,12 -12,0 z " />
	</g>
</svg>
